<svg width="466" height="399" xmlns="http://www.w3.org/2000/svg" xmlns:xlink="http://www.w3.org/1999/xlink" overflow="hidden"><defs><clipPath id="clip0"><rect x="140" y="77" width="466" height="399"/></clipPath><clipPath id="clip1"><rect x="141" y="135" width="349" height="340"/></clipPath><clipPath id="clip2"><rect x="141" y="135" width="349" height="340"/></clipPath><clipPath id="clip3"><rect x="141" y="135" width="349" height="340"/></clipPath><clipPath id="clip4"><rect x="375" y="305" width="230" height="125"/></clipPath><clipPath id="clip5"><rect x="375" y="305" width="230" height="125"/></clipPath><clipPath id="clip6"><rect x="375" y="305" width="230" height="125"/></clipPath><clipPath id="clip7"><path d="M401.103 77.6025 560.981 175.597 462.987 335.474 303.109 237.48Z" fill-rule="evenodd" clip-rule="evenodd"/></clipPath><clipPath id="clip8"><path d="M401.103 77.6025 560.981 175.597 462.987 335.474 303.109 237.48Z" fill-rule="evenodd" clip-rule="evenodd"/></clipPath><clipPath id="clip9"><path d="M401.103 77.6025 560.981 175.597 462.987 335.474 303.109 237.48Z" fill-rule="evenodd" clip-rule="evenodd"/></clipPath></defs><g clip-path="url(#clip0)" transform="translate(-140 -77)"><g clip-path="url(#clip1)"><g clip-path="url(#clip2)"><g clip-path="url(#clip3)"><path d="M269.167 212.5 70.8333 212.5 70.8333 92.0833 269.167 92.0833 269.167 212.5ZM290.417 85C290.417 77.2083 284.042 70.8333 276.25 70.8333L63.75 70.8333C55.9583 70.8333 49.5833 77.2083 49.5833 85L49.5833 233.75 290.417 233.75 290.417 85Z" fill="#0DAF90" transform="matrix(1.02647 0 0 1 141 135)"/><path d="M191.25 247.917 191.25 251.458C191.25 253.583 189.833 255 187.708 255L152.292 255C150.167 255 148.75 253.583 148.75 251.458L148.75 247.917 7.08333 247.917 7.08333 255C7.08333 262.792 13.4583 269.167 21.25 269.167L318.75 269.167C326.542 269.167 332.917 262.792 332.917 255L332.917 247.917 191.25 247.917Z" fill="#0DAF90" transform="matrix(1.02647 0 0 1 141 135)"/></g></g></g><path d="M399.031 347.85 532.939 328.866 544.474 410.235 410.567 429.219Z" stroke="#FFFFFF" stroke-width="1.33333" stroke-miterlimit="8" fill="#FFFFFF" fill-rule="evenodd"/><g clip-path="url(#clip4)"><g clip-path="url(#clip5)"><g clip-path="url(#clip6)"><path d="M117.969 47.2656 111.198 44.7917 111.198 30.599 117.969 27.7344 72.1354 10.8073 16.4063 30.3385C11.0677 32.9427 10.9375 40.1042 10.9375 45.9635 10.9375 47.9167 11.1979 49.8698 11.5885 51.6927 7.16146 54.5573 7.03125 61.1979 7.03125 66.7969 7.03125 71.3542 8.07292 75.5208 10.9375 78.125 10.2865 80.3385 10.6771 83.0729 10.6771 86.3281 10.6771 92.1875 12.2396 97.526 17.4479 99.349L53.6458 114.323 117.708 87.7604 110.938 85.2865 110.938 70.9635 117.708 68.099 107.292 64.1927 107.292 51.6927 117.969 47.2656ZM17.9688 39.4531 54.1667 53.6458 106.12 32.6823 106.12 43.8802 54.1667 65.4948 17.9688 51.1719 17.9688 39.4531ZM105.859 84.375 53.9063 105.859 17.5781 91.5365 17.5781 81.3802 50 94.6615 105.99 72.526 105.859 84.375ZM102.214 64.8438 50.2604 86.3281 14.0625 72.0052 14.0625 60.2865 51.3021 75.1302 102.344 53.776 102.344 64.8438Z" fill="#4D4949" transform="matrix(1.84 0 0 1 375 305)"/></g></g></g><rect x="399" y="130" width="133" height="105" fill="#FFFFFF"/><g clip-path="url(#clip7)"><g clip-path="url(#clip8)"><g clip-path="url(#clip9)"><path d="M384.087 180.122 372.144 199.607C366.53 208.767 381.733 230.686 407.546 246.508 433.36 262.33 459.792 265.93 465.406 256.77L477.349 237.285 420.612 225.191 384.087 180.122Z" fill="#4D4949"/><path d="M425.002 218.03 513.231 237.055 456.543 166.569 368.008 148.044 375.293 157.091 356.511 187.734C355.388 189.566 355.968 191.983 357.8 193.106 359.632 194.229 362.049 193.649 363.172 191.817L380.525 163.505 425.002 218.03Z" fill="#4D4949"/></g></g></g></g></svg>